<svg width="131" height="42" viewBox="0 0 131 42" fill="none" xmlns="http://www.w3.org/2000/svg">
<g clip-path="url(#clip0_406480_3558)">
<path d="M40.7064 21.2433C40.0621 21.6132 39.2805 21.9055 38.3617 22.1203C37.4429 22.3351 36.4882 22.4425 35.4978 22.4425C34.1614 22.4425 33.0218 22.2814 32.0792 21.9592C31.1484 21.637 30.4444 21.1896 29.9671 20.6168C29.5017 20.044 29.269 19.3818 29.269 18.63C29.269 17.9737 29.448 17.395 29.806 16.8938C30.164 16.3927 30.6592 16.0049 31.2916 15.7304C30.8024 15.4798 30.4265 15.1338 30.164 14.6923C29.9134 14.2388 29.7881 13.7436 29.7881 13.2067C29.7881 12.5146 30.0029 11.8822 30.4325 11.3094C30.874 10.7366 31.5422 10.2772 32.4371 9.93118C33.3321 9.58513 34.4358 9.41211 35.7484 9.41211C36.5718 9.41211 37.3832 9.48967 38.1827 9.64479C38.9822 9.79992 39.6862 10.0087 40.2947 10.2713L39.3282 12.9203C38.2185 12.431 37.0729 12.1864 35.8916 12.1864C35.0444 12.1864 34.412 12.2998 33.9943 12.5265C33.5767 12.7413 33.3679 13.0456 33.3679 13.4394C33.3679 14.1553 33.8869 14.5133 34.9251 14.5133H38.4691V17.216H34.6924C34.0838 17.216 33.6244 17.3174 33.3142 17.5203C33.0039 17.7112 32.8488 17.9976 32.8488 18.3794C32.8488 18.7851 33.0755 19.1014 33.529 19.3281C33.9824 19.5548 34.6864 19.6682 35.641 19.6682C36.3212 19.6682 37.0192 19.5787 37.7352 19.3997C38.4631 19.2087 39.0955 18.9522 39.6325 18.63L40.7064 21.2433Z" fill="white"/>
<path d="M49.8288 17.1086C50.9385 17.4785 51.4934 18.2422 51.4934 19.3997C51.4934 20.2707 51.1533 20.9569 50.4732 21.458C49.793 21.9473 48.7907 22.1919 47.4662 22.1919H42.007V12.4907H47.2156C48.4804 12.4907 49.4589 12.7115 50.151 13.153C50.855 13.5945 51.207 14.215 51.207 15.0145C51.207 15.4798 51.0877 15.8915 50.849 16.2495C50.6104 16.6074 50.2703 16.8938 49.8288 17.1086ZM45.0498 16.3927H46.9113C47.6989 16.3927 48.0926 16.1003 48.0926 15.5156C48.0926 14.9548 47.6989 14.6744 46.9113 14.6744H45.0498V16.3927ZM47.1619 19.9903C47.9852 19.9903 48.3969 19.692 48.3969 19.0954C48.3969 18.4988 47.9972 18.2004 47.1977 18.2004H45.0498V19.9903H47.1619Z" fill="white"/>
<path d="M57.7576 18.7374H56.6121V22.1919H53.2113V12.4907H56.6121V16.0705H57.8292L60.2097 12.4907H63.8074L60.5498 17.1444L64.0222 22.1919H60.0128L57.7576 18.7374Z" fill="white"/>
<path d="M75.0298 12.4907V22.1919H71.6291V15.1934H69.1769L69.1053 16.679C69.0576 17.9439 68.9323 18.988 68.7294 19.8113C68.5266 20.6347 68.1925 21.279 67.7271 21.7444C67.2617 22.1979 66.6233 22.4246 65.8119 22.4246C65.3943 22.4246 64.8454 22.347 64.1652 22.1919L64.3084 19.4176C64.5232 19.4414 64.6664 19.4534 64.738 19.4534C65.1079 19.4534 65.3883 19.334 65.5792 19.0954C65.7702 18.8567 65.9014 18.5405 65.973 18.1467C66.0446 17.741 66.0923 17.2041 66.1162 16.5359L66.2594 12.4907H75.0298Z" fill="white"/>
<path d="M87.3029 12.4907V22.1919H84.0632V21.1717C83.7052 21.5535 83.2756 21.8458 82.7745 22.0487C82.2852 22.2516 81.7602 22.353 81.1994 22.353C79.9345 22.353 78.9262 21.9831 78.1744 21.2433C77.4346 20.5034 77.0647 19.3937 77.0647 17.9141V12.4907H80.4655V17.3592C80.4655 18.7553 81.0084 19.4534 82.0943 19.4534C82.6313 19.4534 83.0668 19.2684 83.4009 18.8985C83.735 18.5167 83.9021 17.9379 83.9021 17.1623V12.4907H87.3029Z" fill="white"/>
<path d="M99.9134 12.4907V20.4199C99.9134 22.2217 99.4242 23.5701 98.4457 24.465C97.4673 25.3719 96.0592 25.8254 94.2216 25.8254C93.267 25.8254 92.3721 25.718 91.5368 25.5032C90.7015 25.2884 89.9915 24.9722 89.4068 24.5545L90.6418 22.174C91.0356 22.4962 91.5308 22.7468 92.1274 22.9257C92.736 23.1167 93.3326 23.2121 93.9173 23.2121C94.8123 23.2121 95.4686 23.0152 95.8862 22.6215C96.3038 22.2277 96.5127 21.643 96.5127 20.8674V20.5452C95.8564 21.3089 94.8958 21.6907 93.6309 21.6907C92.7718 21.6907 91.9783 21.4998 91.2504 21.118C90.5225 20.7242 89.9438 20.1753 89.5142 19.4713C89.0846 18.7553 88.8699 17.932 88.8699 17.0012C88.8699 16.0824 89.0846 15.271 89.5142 14.567C89.9438 13.851 90.5225 13.3021 91.2504 12.9203C91.9783 12.5265 92.7718 12.3296 93.6309 12.3296C95.0151 12.3296 96.0294 12.7771 96.6738 13.672V12.4907H99.9134ZM94.4364 18.988C95.045 18.988 95.5461 18.803 95.9399 18.4331C96.3456 18.0632 96.5485 17.5859 96.5485 17.0012C96.5485 16.4165 96.3516 15.9452 95.9578 15.5872C95.564 15.2173 95.0569 15.0324 94.4364 15.0324C93.8159 15.0324 93.3028 15.2173 92.8971 15.5872C92.5033 15.9452 92.3064 16.4165 92.3064 17.0012C92.3064 17.5859 92.5093 18.0632 92.915 18.4331C93.3207 18.803 93.8278 18.988 94.4364 18.988Z" fill="white"/>
<path d="M34.7867 26.9327V32.774H33.1512V28.2428H30.9315V32.774H29.3042V26.9327H34.7867Z" fill="white"/>
<path d="M38.3636 28.176C38.8587 28.176 39.2899 28.2706 39.6571 28.4598C40.0242 28.6489 40.3052 28.9215 40.4999 29.2775C40.7001 29.628 40.8003 30.0397 40.8003 30.5126C40.8003 30.9799 40.7085 31.3915 40.5249 31.7476C40.3413 32.0981 40.0826 32.3707 39.7488 32.5654C39.4151 32.7545 39.0284 32.8491 38.5889 32.8491C38.0716 32.8491 37.6654 32.6905 37.3706 32.3734V34.3929H35.7851V30.5292C35.7851 30.0619 35.8908 29.6503 36.1022 29.2942C36.3136 28.9382 36.614 28.6628 37.0034 28.4681C37.3928 28.2734 37.8462 28.176 38.3636 28.176ZM38.2885 31.589C38.5722 31.589 38.8003 31.4917 38.9728 31.297C39.1508 31.0967 39.2398 30.8352 39.2398 30.5126C39.2398 30.1899 39.1508 29.9312 38.9728 29.7365C38.8003 29.5362 38.5722 29.4361 38.2885 29.4361C38.0048 29.4361 37.7767 29.5362 37.6042 29.7365C37.4318 29.9312 37.3456 30.1899 37.3456 30.5126C37.3456 30.8408 37.429 31.1023 37.5959 31.297C37.7684 31.4917 37.9992 31.589 38.2885 31.589Z" fill="white"/>
<path d="M43.7946 32.8491C43.3106 32.8491 42.8739 32.7489 42.4845 32.5487C42.0951 32.3484 41.7891 32.0702 41.5666 31.7142C41.3496 31.3582 41.2411 30.9548 41.2411 30.5042C41.2411 30.0592 41.3496 29.6586 41.5666 29.3026C41.7891 28.9465 42.0923 28.6712 42.4761 28.4764C42.8656 28.2762 43.3051 28.176 43.7946 28.176C44.2842 28.176 44.7237 28.2762 45.1131 28.4764C45.5025 28.6712 45.8057 28.9465 46.0227 29.3026C46.2396 29.6531 46.3481 30.0536 46.3481 30.5042C46.3481 30.9548 46.2396 31.3582 46.0227 31.7142C45.8057 32.0702 45.5025 32.3484 45.1131 32.5487C44.7237 32.7489 44.2842 32.8491 43.7946 32.8491ZM43.7946 31.589C44.0728 31.589 44.3009 31.4945 44.4789 31.3053C44.6569 31.1106 44.7459 30.8436 44.7459 30.5042C44.7459 30.1704 44.6569 29.909 44.4789 29.7198C44.3009 29.5307 44.0728 29.4361 43.7946 29.4361C43.5165 29.4361 43.2884 29.5307 43.1103 29.7198C42.9323 29.909 42.8433 30.1704 42.8433 30.5042C42.8433 30.8436 42.9323 31.1106 43.1103 31.3053C43.2884 31.4945 43.5165 31.589 43.7946 31.589Z" fill="white"/>
<path d="M49.4866 31.6391C49.7036 31.6391 49.89 31.6085 50.0457 31.5473C50.2071 31.4861 50.3684 31.386 50.5297 31.2469L51.3559 32.1147C50.9275 32.6043 50.2877 32.8491 49.4366 32.8491C48.9081 32.8491 48.4435 32.7489 48.043 32.5487C47.6424 32.3484 47.3309 32.0702 47.1084 31.7142C46.8914 31.3582 46.7829 30.9548 46.7829 30.5042C46.7829 30.0592 46.8914 29.6614 47.1084 29.3109C47.3253 28.9549 47.623 28.6767 48.0013 28.4764C48.3851 28.2762 48.8135 28.176 49.2864 28.176C49.7258 28.176 50.1264 28.2678 50.488 28.4514C50.8552 28.6294 51.1472 28.8937 51.3642 29.2442C51.5812 29.5891 51.6896 30.0007 51.6896 30.4792L48.4602 31.0967C48.6327 31.4583 48.9748 31.6391 49.4866 31.6391ZM49.2947 29.3026C49.0221 29.3026 48.7996 29.3888 48.6271 29.5613C48.4547 29.7282 48.3573 29.9701 48.3351 30.2873L50.1709 29.9284C50.1153 29.7393 50.0096 29.5891 49.8538 29.4778C49.698 29.361 49.5117 29.3026 49.2947 29.3026Z" fill="white"/>
<path d="M54.5653 31.1634H54.0312V32.774H52.4457V28.2511H54.0312V29.9201H54.5986L55.7085 28.2511H57.3858L55.867 30.4208L57.4859 32.774H55.6167L54.5653 31.1634Z" fill="white"/>
<path d="M63.9029 28.176C64.4593 28.176 64.9015 28.3429 65.2298 28.6767C65.5635 29.0105 65.7304 29.514 65.7304 30.1871V32.774H64.1449V30.4458C64.1449 30.1287 64.0837 29.895 63.9614 29.7448C63.8445 29.5946 63.6776 29.5195 63.4607 29.5195C63.2215 29.5195 63.0295 29.603 62.8849 29.7699C62.7402 29.9368 62.6679 30.1899 62.6679 30.5292V32.774H61.0824V30.4458C61.0824 29.8283 60.8543 29.5195 60.3982 29.5195C60.1534 29.5195 59.9587 29.603 59.814 29.7699C59.6694 29.9368 59.5971 30.1899 59.5971 30.5292V32.774H58.0116V28.2511H59.522V28.7268C59.6889 28.5432 59.8863 28.4069 60.1144 28.3179C60.3481 28.2233 60.6012 28.176 60.8738 28.176C61.1909 28.176 61.4746 28.2344 61.725 28.3513C61.9753 28.4681 62.1784 28.6461 62.3341 28.8853C62.5122 28.6572 62.7375 28.482 63.0101 28.3596C63.2827 28.2372 63.5803 28.176 63.9029 28.176Z" fill="white"/>
<path d="M66.6904 28.2511H68.2676V29.9284H69.8948V28.2511H71.4803V32.774H69.8948V31.1885H68.2676V32.774H66.6904V28.2511Z" fill="white"/>
<path d="M74.7026 32.9075C73.2061 32.9075 72.4579 32.265 72.4579 30.9799V28.2511H74.035V29.6864C74.1518 29.6085 74.3076 29.5446 74.5023 29.4945C74.7026 29.4444 74.9307 29.4194 75.1866 29.4194C75.7429 29.4194 76.1796 29.5613 76.4967 29.845C76.8138 30.1231 76.9724 30.5376 76.9724 31.0883C76.9724 31.6836 76.7665 32.137 76.3549 32.4485C75.9487 32.7545 75.398 32.9075 74.7026 32.9075ZM77.3479 28.2511H78.9334V32.774H77.3479V28.2511ZM74.7026 31.8227C74.9196 31.8227 75.0837 31.7587 75.1949 31.6308C75.3062 31.5028 75.3618 31.3331 75.3618 31.1217C75.3618 30.9159 75.3062 30.7546 75.1949 30.6377C75.0837 30.5209 74.9223 30.4625 74.7109 30.4625C74.5607 30.4625 74.4272 30.4903 74.3104 30.5459C74.1936 30.6016 74.1018 30.6767 74.035 30.7712V31.1217C74.035 31.3387 74.0907 31.5111 74.2019 31.6391C74.3132 31.7615 74.4801 31.8227 74.7026 31.8227Z" fill="white"/>
<path d="M82.3929 31.6391C82.6099 31.6391 82.7963 31.6085 82.952 31.5473C83.1134 31.4861 83.2747 31.386 83.436 31.2469L84.2621 32.1147C83.8338 32.6043 83.194 32.8491 82.3429 32.8491C81.8144 32.8491 81.3498 32.7489 80.9493 32.5487C80.5487 32.3484 80.2372 32.0702 80.0147 31.7142C79.7977 31.3582 79.6892 30.9548 79.6892 30.5042C79.6892 30.0592 79.7977 29.6614 80.0147 29.3109C80.2316 28.9549 80.5293 28.6767 80.9076 28.4764C81.2914 28.2762 81.7198 28.176 82.1927 28.176C82.6321 28.176 83.0327 28.2678 83.3943 28.4514C83.7615 28.6294 84.0535 28.8937 84.2705 29.2442C84.4875 29.5891 84.5959 30.0007 84.5959 30.4792L81.3665 31.0967C81.539 31.4583 81.8811 31.6391 82.3929 31.6391ZM82.201 29.3026C81.9284 29.3026 81.7059 29.3888 81.5334 29.5613C81.361 29.7282 81.2636 29.9701 81.2414 30.2873L83.0772 29.9284C83.0216 29.7393 82.9159 29.5891 82.7601 29.4778C82.6043 29.361 82.418 29.3026 82.201 29.3026Z" fill="white"/>
<path d="M90.0502 32.8491C89.5495 32.8491 89.1017 32.7489 88.7067 32.5487C88.3117 32.3484 88.003 32.0702 87.7804 31.7142C87.5635 31.3582 87.455 30.9548 87.455 30.5042C87.455 30.0536 87.5635 29.6531 87.7804 29.3026C88.003 28.9465 88.3117 28.6712 88.7067 28.4764C89.1017 28.2762 89.5495 28.176 90.0502 28.176C90.562 28.176 91.0043 28.2873 91.377 28.5098C91.7497 28.7268 92.014 29.03 92.1698 29.4194L90.9431 30.0453C90.7373 29.6391 90.4368 29.4361 90.0419 29.4361C89.7581 29.4361 89.5217 29.5307 89.3326 29.7198C89.149 29.909 89.0572 30.1704 89.0572 30.5042C89.0572 30.8436 89.149 31.1106 89.3326 31.3053C89.5217 31.4945 89.7581 31.589 90.0419 31.589C90.4368 31.589 90.7373 31.386 90.9431 30.9799L92.1698 31.6057C92.014 31.9951 91.7497 32.3011 91.377 32.5236C91.0043 32.7406 90.562 32.8491 90.0502 32.8491Z" fill="white"/>
<path d="M97.4893 28.2511V32.774H95.9789V32.2983C95.812 32.4764 95.6117 32.6127 95.3781 32.7072C95.15 32.8018 94.9052 32.8491 94.6437 32.8491C94.054 32.8491 93.5839 32.6766 93.2335 32.3317C92.8885 31.9868 92.7161 31.4694 92.7161 30.7796V28.2511H94.3016V30.5209C94.3016 31.1718 94.5547 31.4972 95.061 31.4972C95.3113 31.4972 95.5144 31.411 95.6701 31.2386C95.8259 31.0605 95.9038 30.7907 95.9038 30.4291V28.2511H97.4893Z" fill="white"/>
<path d="M100.823 32.8491C100.323 32.8491 99.8749 32.7489 99.4799 32.5487C99.0849 32.3484 98.7761 32.0702 98.5536 31.7142C98.3366 31.3582 98.2282 30.9548 98.2282 30.5042C98.2282 30.0536 98.3366 29.6531 98.5536 29.3026C98.7761 28.9465 99.0849 28.6712 99.4799 28.4764C99.8749 28.2762 100.323 28.176 100.823 28.176C101.335 28.176 101.777 28.2873 102.15 28.5098C102.523 28.7268 102.787 29.03 102.943 29.4194L101.716 30.0453C101.51 29.6391 101.21 29.4361 100.815 29.4361C100.531 29.4361 100.295 29.5307 100.106 29.7198C99.9222 29.909 99.8304 30.1704 99.8304 30.5042C99.8304 30.8436 99.9222 31.1106 100.106 31.3053C100.295 31.4945 100.531 31.589 100.815 31.589C101.21 31.589 101.51 31.386 101.716 30.9799L102.943 31.6057C102.787 31.9951 102.523 32.3011 102.15 32.5236C101.777 32.7406 101.335 32.8491 100.823 32.8491Z" fill="white"/>
<path d="M109.497 28.176C110.054 28.176 110.496 28.3429 110.824 28.6767C111.158 29.0105 111.325 29.514 111.325 30.1871V32.774H109.739V30.4458C109.739 30.1287 109.678 29.895 109.556 29.7448C109.439 29.5946 109.272 29.5195 109.055 29.5195C108.816 29.5195 108.624 29.603 108.479 29.7699C108.335 29.9368 108.262 30.1899 108.262 30.5292V32.774H106.677V30.4458C106.677 29.8283 106.449 29.5195 105.993 29.5195C105.748 29.5195 105.553 29.603 105.409 29.7699C105.264 29.9368 105.192 30.1899 105.192 30.5292V32.774H103.606V28.2511H105.116V28.7268C105.283 28.5432 105.481 28.4069 105.709 28.3179C105.943 28.2233 106.196 28.176 106.468 28.176C106.785 28.176 107.069 28.2344 107.319 28.3513C107.57 28.4681 107.773 28.6461 107.929 28.8853C108.107 28.6572 108.332 28.482 108.605 28.3596C108.877 28.2372 109.175 28.176 109.497 28.176Z" fill="white"/>
<path d="M114.68 31.6391C114.897 31.6391 115.083 31.6085 115.239 31.5473C115.4 31.4861 115.562 31.386 115.723 31.2469L116.549 32.1147C116.121 32.6043 115.481 32.8491 114.63 32.8491C114.101 32.8491 113.637 32.7489 113.236 32.5487C112.836 32.3484 112.524 32.0702 112.302 31.7142C112.085 31.3582 111.976 30.9548 111.976 30.5042C111.976 30.0592 112.085 29.6614 112.302 29.3109C112.519 28.9549 112.816 28.6767 113.195 28.4764C113.578 28.2762 114.007 28.176 114.48 28.176C114.919 28.176 115.32 28.2678 115.681 28.4514C116.048 28.6294 116.34 28.8937 116.557 29.2442C116.774 29.5891 116.883 30.0007 116.883 30.4792L113.653 31.0967C113.826 31.4583 114.168 31.6391 114.68 31.6391ZM114.488 29.3026C114.215 29.3026 113.993 29.3888 113.82 29.5613C113.648 29.7282 113.551 29.9701 113.528 30.2873L115.364 29.9284C115.309 29.7393 115.203 29.5891 115.047 29.4778C114.891 29.361 114.705 29.3026 114.488 29.3026Z" fill="white"/>
<path d="M122.028 32.774V30.3957L120.868 32.3734H120.192L119.066 30.3624V32.774H117.639V28.2511H119.308L120.568 30.6127L121.953 28.2511H123.447L123.455 32.774H122.028Z" fill="white"/>
<path d="M126.678 32.9075C125.181 32.9075 124.433 32.265 124.433 30.9799V28.2511H126.01V29.6864C126.127 29.6085 126.283 29.5446 126.478 29.4945C126.678 29.4444 126.906 29.4194 127.162 29.4194C127.718 29.4194 128.155 29.5613 128.472 29.845C128.789 30.1231 128.948 30.5376 128.948 31.0883C128.948 31.6836 128.742 32.137 128.33 32.4485C127.924 32.7545 127.373 32.9075 126.678 32.9075ZM129.323 28.2511H130.909V32.774H129.323V28.2511ZM126.678 31.8227C126.895 31.8227 127.059 31.7587 127.17 31.6308C127.282 31.5028 127.337 31.3331 127.337 31.1217C127.337 30.9159 127.282 30.7546 127.17 30.6377C127.059 30.5209 126.898 30.4625 126.686 30.4625C126.536 30.4625 126.403 30.4903 126.286 30.5459C126.169 30.6016 126.077 30.6767 126.01 30.7712V31.1217C126.01 31.3387 126.066 31.5111 126.177 31.6391C126.288 31.7615 126.455 31.8227 126.678 31.8227Z" fill="white"/>
<path d="M4.88511 25.0037L9.57146 14.21H11.1437V17.2637L7.81786 25.0037H10.2971V23.6129C10.2971 23.2743 10.8615 23.2501 11.1437 23.2803V27.5434C10.3697 27.5434 10.2568 27.2814 10.2971 27.1503V25.941H7.36434L0.108048 42.1467H-0.164062L1.68024 36.5533C1.68024 36.5533 0.0475793 35.9184 0.591801 34.5578C1.13602 33.1973 4.40135 25.941 4.40135 25.941H0.591801V25.0037H4.88511Z" fill="#FF9900"/>
<path d="M17.0999 25.0037L12.4135 14.21H10.8413V17.2637L14.1671 25.0037H11.6879V23.6129C11.6879 23.2743 11.1235 23.2501 10.8413 23.2803V27.5434C11.6153 27.5434 11.7282 27.2814 11.6879 27.1503V25.941H14.6206L21.8769 42.1467H22.149L20.3047 36.5533C20.3047 36.5533 21.9374 35.9184 21.3932 34.5578C20.8489 33.1973 17.5836 25.941 17.5836 25.941H21.3932V25.0037H17.0999Z" fill="#FF9900"/>
<path fill-rule="evenodd" clip-rule="evenodd" d="M11.0229 12.638C12.7929 12.638 14.2278 11.2032 14.2278 9.43318C14.2278 7.66318 12.7929 6.22832 11.0229 6.22832C9.25292 6.22832 7.81806 7.66318 7.81806 9.43318C7.81806 11.2032 9.25292 12.638 11.0229 12.638ZM11.0229 14.3916C13.7614 14.3916 15.9814 12.1717 15.9814 9.43318C15.9814 6.69469 13.7614 4.47471 11.0229 4.47471C8.28443 4.47471 6.06445 6.69469 6.06445 9.43318C6.06445 12.1717 8.28443 14.3916 11.0229 14.3916Z" fill="white"/>
<path d="M10.1159 0H11.93V4.77706H10.1159V0Z" fill="white"/>
</g>
<defs>
<clipPath id="clip0_406480_3558">
<rect width="131" height="42" fill="white"/>
</clipPath>
</defs>
</svg>
